<?xml version="1.0" encoding="utf-8"?>
<!-- Generator: Adobe Illustrator 24.2.3, SVG Export Plug-In . SVG Version: 6.00 Build 0)  -->
<svg version="1.1" id="Layer_1" xmlns="http://www.w3.org/2000/svg" xmlns:xlink="http://www.w3.org/1999/xlink" x="0px" y="0px"
	 viewBox="0 0 438 232" style="enable-background:new 0 0 438 232;" xml:space="preserve">
<style type="text/css">
	.st0{fill:#FFFFFF;}
	.st1{fill:none;}
	.st2{fill:#C7D2D8;}
	.st3{fill:#33B9E3;}
	.st4{fill:#0055E9;}
	.st5{font-family:'MyriadPro-Regular';}
	.st6{font-size:16px;}
</style>
<g>
	<path class="st0" d="M80,30h278c11,0,20,9,20,20v72c0,11-9,20-20,20H80c-11,0-20-9-20-20V50C60,39,69,30,80,30z"/>
</g>
<circle class="st1" cx="116" cy="86" r="24"/>
<path class="st2" d="M340,76h-12c-0.8,0-1.6,0.3-2.1,0.9c-0.6,0.6-0.9,1.3-0.9,2.1v11c0,0.8,0.3,1.6,0.9,2.1
	c0.6,0.6,1.3,0.9,2.1,0.9h2.6l2.7,2.7c0.1,0.1,0.2,0.2,0.3,0.2c0.1,0,0.3,0.1,0.4,0.1c0.2,0,0.5-0.1,0.6-0.2l3.2-2.8h2.1
	c0.8,0,1.6-0.3,2.1-0.9c0.6-0.6,0.9-1.3,0.9-2.1V79c0-0.8-0.3-1.6-0.9-2.1C341.6,76.3,340.8,76,340,76z M341,90
	c0,0.3-0.1,0.5-0.3,0.7c-0.2,0.2-0.4,0.3-0.7,0.3h-2.5c-0.2,0-0.5,0.1-0.6,0.2l-2.8,2.4l-2.3-2.3c-0.1-0.1-0.2-0.2-0.3-0.2
	c-0.1,0-0.3-0.1-0.4-0.1h-3c-0.3,0-0.5-0.1-0.7-0.3c-0.2-0.2-0.3-0.4-0.3-0.7V79c0-0.3,0.1-0.5,0.3-0.7c0.2-0.2,0.4-0.3,0.7-0.3h12
	c0.3,0,0.5,0.1,0.7,0.3c0.2,0.2,0.3,0.4,0.3,0.7V90z"/>
<path class="st2" d="M303,78h-3v-1c0-0.3-0.1-0.5-0.3-0.7c-0.2-0.2-0.4-0.3-0.7-0.3h-10c-0.3,0-0.5,0.1-0.7,0.3
	c-0.2,0.2-0.3,0.4-0.3,0.7v1h-3c-0.3,0-0.5,0.1-0.7,0.3c-0.2,0.2-0.3,0.4-0.3,0.7v3c0,1.1,0.4,2.1,1.2,2.8c0.8,0.8,1.8,1.2,2.8,1.2
	h1.5c0.9,1,2.1,1.7,3.5,1.9V90h-1c-0.8,0-1.6,0.3-2.1,0.9c-0.6,0.6-0.9,1.3-0.9,2.1v2c0,0.3,0.1,0.5,0.3,0.7
	c0.2,0.2,0.4,0.3,0.7,0.3h8c0.3,0,0.5-0.1,0.7-0.3c0.2-0.2,0.3-0.4,0.3-0.7v-2c0-0.8-0.3-1.6-0.9-2.1c-0.6-0.6-1.3-0.9-2.1-0.9h-1
	v-2.1c1.3-0.2,2.6-0.9,3.5-1.9h1.5c1.1,0,2.1-0.4,2.8-1.2c0.8-0.8,1.2-1.8,1.2-2.8v-3c0-0.3-0.1-0.5-0.3-0.7
	C303.5,78.1,303.3,78,303,78z M288,84c-0.5,0-1-0.2-1.4-0.6S286,82.5,286,82v-2h2v2c0,0.7,0.1,1.4,0.4,2H288z M296,92
	c0.3,0,0.5,0.1,0.7,0.3c0.2,0.2,0.3,0.4,0.3,0.7v1h-6v-1c0-0.3,0.1-0.5,0.3-0.7c0.2-0.2,0.4-0.3,0.7-0.3H296z M298,82
	c0,1.1-0.4,2.1-1.2,2.8c-0.8,0.8-1.8,1.2-2.8,1.2s-2.1-0.4-2.8-1.2c-0.8-0.8-1.2-1.8-1.2-2.8v-4h8V82z M302,82c0,0.5-0.2,1-0.6,1.4
	S300.5,84,300,84h-0.4c0.2-0.6,0.3-1.3,0.4-2v-2h2V82z"/>
<path class="st3" d="M163.2,99.4c0,0.7-0.2,1.3-0.7,1.8c-0.5,0.5-1.1,0.8-1.9,0.9v1h-1.4v-1c-0.6-0.1-1.1-0.3-1.6-0.5
	c-0.5-0.3-0.9-0.6-1.2-1.1l1-1c0.3,0.4,0.7,0.7,1.1,0.9c0.4,0.2,0.9,0.3,1.3,0.3c0.5,0,0.9-0.1,1.1-0.3c0.3-0.2,0.4-0.5,0.4-0.9
	c0-0.3,0-0.5-0.1-0.6c-0.1-0.2-0.3-0.3-0.5-0.5c-0.3-0.2-0.6-0.4-1.2-0.7c-0.7-0.3-1.2-0.7-1.6-1s-0.7-0.6-0.9-1
	c-0.2-0.3-0.3-0.7-0.3-1.2c0-0.7,0.2-1.2,0.6-1.6c0.4-0.4,1-0.7,1.8-0.9v-0.9h1.4v0.9c0.5,0.1,1,0.2,1.4,0.5c0.4,0.3,0.7,0.6,1,1
	l-1.1,0.8c-0.2-0.3-0.5-0.5-0.8-0.7c-0.3-0.2-0.6-0.3-1-0.3c-0.5,0-0.8,0.1-1.1,0.3c-0.3,0.2-0.4,0.5-0.4,0.8c0,0.2,0.1,0.4,0.2,0.6
	c0.1,0.1,0.3,0.3,0.6,0.5c0.3,0.2,0.8,0.4,1.4,0.7c0.9,0.4,1.5,0.9,1.9,1.3C163,98.1,163.2,98.7,163.2,99.4z M167.7,100.7
	c0.6-0.5,1.3-1,1.9-1.6c0.7-0.6,1.2-1.3,1.7-2c0.5-0.7,0.7-1.4,0.7-2.1c0-0.4-0.1-0.8-0.4-1c-0.3-0.3-0.6-0.4-1-0.4
	c-0.4,0-0.9,0.1-1.3,0.3c-0.4,0.2-0.7,0.5-1,0.9l-1-1c0.3-0.5,0.8-0.9,1.3-1.2c0.6-0.3,1.2-0.4,1.9-0.4c1,0,1.8,0.2,2.3,0.7
	c0.6,0.5,0.9,1.2,0.9,2c0,1.6-1.2,3.5-3.7,5.8h4.1v1.3h-6.5V100.7z M176.6,100c0.4,0,0.6,0.1,0.9,0.4c0.2,0.3,0.3,0.6,0.3,1
	c0,0.6-0.2,1.1-0.5,1.7c-0.3,0.6-0.7,1.1-1.2,1.5l-0.7-0.8c0.2-0.2,0.4-0.5,0.6-0.8c0.2-0.3,0.3-0.6,0.4-0.9c0,0-0.1,0-0.2,0
	c-0.2,0-0.4-0.1-0.6-0.3c-0.2-0.2-0.3-0.4-0.3-0.7c0-0.3,0.1-0.6,0.3-0.8S176.3,100,176.6,100z M183.3,100.4h-4.4v-1.3l4.2-6.9h1.9
	V99h1.1v1.4H185v1.6h-1.8V100.4z M183.3,99v-4.5l-2.7,4.5H183.3z M187.7,100.9c0.8-0.2,1.6-0.5,2.3-1c0.7-0.5,1.2-1,1.4-1.7
	c-0.1,0.1-0.3,0.2-0.5,0.3c-0.2,0.1-0.4,0.1-0.7,0.1c-0.6,0-1.2-0.1-1.7-0.4c-0.5-0.3-0.9-0.7-1.1-1.2c-0.3-0.5-0.4-1.1-0.4-1.7
	c0-0.6,0.1-1.2,0.4-1.7c0.3-0.5,0.7-0.9,1.1-1.1c0.5-0.3,1.1-0.4,1.8-0.4c0.7,0,1.3,0.2,1.8,0.5c0.5,0.3,0.9,0.8,1.2,1.3
	c0.3,0.6,0.4,1.2,0.4,2c0,1.1-0.2,2.1-0.7,3.1c-0.5,0.9-1.2,1.6-2,2.2c-0.9,0.6-1.9,0.9-3,1L187.7,100.9z M190.3,97.3
	c0.5,0,0.9-0.2,1.2-0.5c0.3-0.4,0.4-0.8,0.4-1.4c0-0.6-0.1-1-0.4-1.3c-0.3-0.3-0.7-0.5-1.2-0.5c-0.5,0-0.9,0.2-1.1,0.5
	c-0.3,0.3-0.4,0.8-0.4,1.3c0,0.6,0.1,1.1,0.4,1.4C189.4,97.1,189.8,97.3,190.3,97.3z M198.2,102.1c-1.1,0-2-0.4-2.6-1.3
	c-0.6-0.9-0.9-2.1-0.9-3.8s0.3-2.9,0.9-3.8c0.6-0.9,1.5-1.3,2.6-1.3c1.1,0,2,0.4,2.6,1.3c0.6,0.9,0.9,2.1,0.9,3.8s-0.3,2.9-0.9,3.8
	C200.2,101.7,199.3,102.1,198.2,102.1z M198.2,100.8c1.2,0,1.7-1.2,1.7-3.7c0-2.5-0.6-3.8-1.7-3.8c-1.1,0-1.7,1.3-1.7,3.8
	C196.4,99.6,197,100.8,198.2,100.8z M204,100c0.4,0,0.6,0.1,0.9,0.4c0.2,0.3,0.3,0.6,0.3,1c0,0.6-0.2,1.1-0.5,1.7
	c-0.3,0.6-0.7,1.1-1.2,1.5l-0.7-0.8c0.2-0.2,0.4-0.5,0.6-0.8c0.2-0.3,0.3-0.6,0.4-0.9c0,0-0.1,0-0.2,0c-0.2,0-0.4-0.1-0.6-0.3
	c-0.2-0.2-0.3-0.4-0.3-0.7c0-0.3,0.1-0.6,0.3-0.8C203.4,100.1,203.7,100,204,100z M210.7,100.4h-4.4v-1.3l4.2-6.9h1.9V99h1.1v1.4
	h-1.1v1.6h-1.8V100.4z M210.7,99v-4.5l-2.7,4.5H210.7z M214.6,100.7c0.6-0.5,1.3-1,1.9-1.6c0.7-0.6,1.2-1.3,1.7-2
	c0.5-0.7,0.7-1.4,0.7-2.1c0-0.4-0.1-0.8-0.4-1c-0.3-0.3-0.6-0.4-1-0.4c-0.4,0-0.9,0.1-1.3,0.3c-0.4,0.2-0.7,0.5-1,0.9l-1-1
	c0.3-0.5,0.8-0.9,1.3-1.2c0.6-0.3,1.2-0.4,1.9-0.4c1,0,1.8,0.2,2.3,0.7c0.6,0.5,0.9,1.2,0.9,2c0,1.6-1.2,3.5-3.7,5.8h4.1v1.3h-6.5
	V100.7z M225.6,102.1c-1.1,0-2-0.4-2.6-1.3c-0.6-0.9-0.9-2.1-0.9-3.8s0.3-2.9,0.9-3.8c0.6-0.9,1.5-1.3,2.6-1.3c1.1,0,2,0.4,2.6,1.3
	c0.6,0.9,0.9,2.1,0.9,3.8s-0.3,2.9-0.9,3.8C227.6,101.7,226.7,102.1,225.6,102.1z M225.6,100.8c1.2,0,1.7-1.2,1.7-3.7
	c0-2.5-0.6-3.8-1.7-3.8c-1.1,0-1.7,1.3-1.7,3.8C223.8,99.6,224.4,100.8,225.6,100.8z"/>
<text transform="matrix(1 0 0 1 161 74)" class="st4 st5 st6">5,000,000</text>
</svg>
